<?xml version="1.0" encoding="UTF-8"?>
<svg xmlns="http://www.w3.org/2000/svg" width="343" height="20" viewBox="0 0 343 20" fill="none">
  <path d="M13.3228 18H6.41372V17.4264C6.75266 17.4264 7.97804 17.4264 8.1084 16.4617V1.33997L5.78799 1.31389C3.05043 1.31389 2.00755 1.57461 1.19931 3.97324H0.782161C0.782161 3.73859 1.43396 0.505662 1.43396 0.271014H18.3026C18.3026 0.505662 18.9544 3.73859 18.9544 3.97324H18.5111C17.7029 1.57461 16.634 1.31389 13.8964 1.31389L11.6021 1.33997V16.4357C11.7324 17.4264 12.9839 17.4264 13.3228 17.4264V18ZM53.9147 18H37.5936V17.4264C37.9326 17.4264 39.158 17.4264 39.2883 16.4617V1.83534C39.184 0.948886 38.2454 0.844597 37.7761 0.844597H37.5936V0.271014L53.3412 0.24494C53.3412 0.505662 53.993 3.11286 53.993 3.34751H53.5758C53.5758 2.85214 53.2108 1.33997 51.0207 1.33997H42.808V7.59726H49.3261C51.4118 7.54511 51.7508 6.08508 51.7508 5.58971H52.194V10.6738H51.7508C51.7508 10.1784 51.4118 8.71835 49.3261 8.66621H42.808V16.905H50.5775C53.289 16.905 53.7844 15.3667 54.1494 14.2978H54.5926C54.5926 14.5324 53.9147 17.7654 53.9147 18ZM97.168 18H90.259V17.4264C90.5979 17.4264 91.8233 17.4264 91.9797 16.4617V2.87822C85.1749 19.095 85.7746 17.5828 85.6703 18H83.8713L76.0236 2.51321V16.6443C76.1279 17.5046 76.884 17.5828 77.4054 17.5828V18H73.5728V17.5828C74.0943 17.5828 74.8504 17.5046 74.9547 16.6443V1.83534C74.8504 0.948886 73.8857 0.844597 73.4164 0.844597H73.2339V0.271014H78.3962L85.8267 14.9235L91.9797 0.271014H97.168V0.844597H96.9855C96.5162 0.844597 95.5516 0.948886 95.4734 1.83534V16.4357C95.5777 17.4264 96.8291 17.4264 97.168 17.4264V18ZM123.498 18H116.589V17.4264C116.928 17.4264 118.179 17.4264 118.31 16.4617V1.83534C118.179 0.948886 117.241 0.844597 116.771 0.844597H116.589V0.271014H128.765C131.58 0.271014 133.901 2.56535 133.901 5.38113C133.901 8.22298 131.58 10.5173 128.765 10.5173H121.803V16.4357C121.908 17.4264 123.159 17.4264 123.498 17.4264V18ZM126.314 9.4223C128.53 9.4223 130.355 7.62333 130.355 5.38113C130.355 3.16501 128.53 1.33997 126.314 1.33997H121.777V9.4223H126.314ZM165.737 18H158.828V17.4264C159.167 17.4264 160.393 17.4264 160.523 16.4617V1.33997L158.202 1.31389C155.465 1.31389 154.422 1.57461 153.614 3.97324H153.197C153.197 3.73859 153.848 0.505662 153.848 0.271014H170.717C170.717 0.505662 171.369 3.73859 171.369 3.97324H170.926C170.117 1.57461 169.048 1.31389 166.311 1.31389L164.017 1.33997V16.4357C164.147 17.4264 165.398 17.4264 165.737 17.4264V18ZM207.426 18H201.221V17.5828C201.847 17.5828 202.264 17.3221 202.264 16.9571L202.238 16.7746L200.465 12.8638H190.141L188.342 16.8007V16.9571C188.342 17.3221 188.759 17.5828 189.358 17.5828V18H185.578V17.5828C186.099 17.5828 186.986 17.3482 187.273 16.6964L194.755 0.271014H198.249L205.706 16.6964C206.018 17.3482 206.905 17.5828 207.426 17.5828V18ZM200.1 12.0556L195.303 1.47033L190.479 12.0556H200.1ZM234.319 18H227.41V17.4264C227.749 17.4264 228.974 17.4264 229.105 16.4617V1.33997L226.784 1.31389C224.047 1.31389 223.004 1.57461 222.195 3.97324H221.778C221.778 3.73859 222.43 0.505662 222.43 0.271014H239.299C239.299 0.505662 239.951 3.73859 239.951 3.97324H239.507C238.699 1.57461 237.63 1.31389 234.893 1.31389L232.598 1.33997V16.4357C232.729 17.4264 233.98 17.4264 234.319 17.4264V18ZM266.034 18H259.099V17.4264C259.438 17.4264 260.689 17.4264 260.82 16.4617V1.83534C260.715 0.948886 259.777 0.844597 259.308 0.844597H259.099V0.271014H266.034V0.844597H265.852C265.356 0.844597 264.418 0.948886 264.313 1.83534V16.4357C264.418 17.4264 265.669 17.4264 266.034 17.4264V18ZM294.91 18.2607C288.652 18.2607 285.472 13.646 285.472 9.08336C285.472 4.5729 288.574 0.0885085 294.91 0.0885085C301.219 0.0885085 304.348 4.5729 304.348 9.08336C304.348 13.646 301.141 18.2607 294.91 18.2607ZM294.91 17.1396C298.221 17.1396 300.854 13.2027 300.854 9.16158C300.854 5.12041 298.195 1.26175 294.91 1.26175C291.598 1.26175 288.965 5.12041 288.965 9.16158C288.965 13.2027 291.598 17.1396 294.91 17.1396ZM341.239 18H340.144L325.805 3.99932V16.6443C325.909 17.5046 326.665 17.5828 327.186 17.5828V18H323.354V17.5828C323.875 17.5828 324.631 17.5046 324.736 16.6443V2.8C324.736 1.47033 322.963 0.844597 322.207 0.844597V0.271014H327.134L340.144 12.8899V1.62676C340.066 0.766382 339.31 0.688165 338.788 0.688165V0.271014H342.621V0.688165C342.1 0.688165 341.317 0.766382 341.239 1.62676V18Z" fill="#E6E6E6"></path>
</svg>
