<svg width="21" height="21" viewBox="0 0 21 21" fill="none" xmlns="http://www.w3.org/2000/svg">
<path d="M20.2878 4.76C20.2527 4.71779 20.2087 4.68382 20.1589 4.66049C20.1092 4.63716 20.0549 4.62505 20 4.625H4.56313L3.93688 1.1825C3.92109 1.09626 3.8756 1.01827 3.80829 0.962097C3.74098 0.90592 3.65611 0.875102 3.56844 0.875H1.25C1.15054 0.875 1.05516 0.914509 0.984835 0.984835C0.914509 1.05516 0.875 1.15054 0.875 1.25C0.875 1.34946 0.914509 1.44484 0.984835 1.51516C1.05516 1.58549 1.15054 1.625 1.25 1.625H3.25531L3.8825 5.075L5.70219 15.0856C5.78608 15.5431 6.03701 15.9531 6.40625 16.2359C6.01943 16.4853 5.71836 16.8472 5.54365 17.2729C5.36893 17.6987 5.32897 18.1678 5.42915 18.6169C5.52933 19.0661 5.76483 19.4738 6.1039 19.7849C6.44297 20.0961 6.86931 20.2958 7.32541 20.3571C7.78151 20.4184 8.24544 20.3384 8.65465 20.1278C9.06386 19.9173 9.39866 19.5863 9.61391 19.1795C9.82916 18.7728 9.9145 18.3098 9.85842 17.853C9.80235 17.3962 9.60756 16.9676 9.30031 16.625H14.9497C14.6062 17.009 14.4049 17.4993 14.3795 18.014C14.3541 18.5286 14.506 19.0363 14.81 19.4524C15.114 19.8684 15.5515 20.1675 16.0495 20.2997C16.5475 20.4319 17.0758 20.3891 17.5461 20.1786C18.0164 19.9681 18.4001 19.6025 18.6333 19.143C18.8664 18.6835 18.9347 18.1579 18.8269 17.6541C18.7191 17.1503 18.4416 16.6987 18.0408 16.3749C17.64 16.0511 17.1403 15.8746 16.625 15.875H7.54719C7.28387 15.8749 7.02895 15.7824 6.82681 15.6136C6.62467 15.4449 6.48811 15.2106 6.44094 14.9516L6.06594 12.875H17.3844C17.8235 12.8751 18.2487 12.721 18.5859 12.4397C18.923 12.1584 19.1508 11.7676 19.2294 11.3356L20.3694 5.0675C20.3792 5.0134 20.3769 4.95781 20.3628 4.90467C20.3487 4.85153 20.3231 4.80214 20.2878 4.76ZM9.125 18.125C9.125 18.4217 9.03703 18.7117 8.8722 18.9584C8.70738 19.205 8.47311 19.3973 8.19903 19.5108C7.92494 19.6243 7.62334 19.6541 7.33237 19.5962C7.04139 19.5383 6.77412 19.3954 6.56434 19.1857C6.35456 18.9759 6.2117 18.7086 6.15382 18.4176C6.09594 18.1267 6.12565 17.8251 6.23918 17.551C6.35271 17.2769 6.54497 17.0426 6.79165 16.8778C7.03832 16.713 7.32833 16.625 7.625 16.625C8.02283 16.625 8.40436 16.783 8.68566 17.0643C8.96696 17.3456 9.125 17.7272 9.125 18.125ZM18.125 18.125C18.125 18.4217 18.037 18.7117 17.8722 18.9584C17.7074 19.205 17.4731 19.3973 17.199 19.5108C16.9249 19.6243 16.6233 19.6541 16.3324 19.5962C16.0414 19.5383 15.7741 19.3954 15.5643 19.1857C15.3546 18.9759 15.2117 18.7086 15.1538 18.4176C15.0959 18.1267 15.1257 17.8251 15.2392 17.551C15.3527 17.2769 15.545 17.0426 15.7916 16.8778C16.0383 16.713 16.3283 16.625 16.625 16.625C17.0228 16.625 17.4044 16.783 17.6857 17.0643C17.967 17.3456 18.125 17.7272 18.125 18.125ZM18.4916 11.2016C18.4444 11.4608 18.3077 11.6952 18.1053 11.8639C17.903 12.0327 17.6479 12.1251 17.3844 12.125H5.92625L4.69906 5.375H19.5509L18.4916 11.2016Z" fill="#1B1B1B"/>
</svg>
