<svg width="216" height="137" viewBox="0 0 216 137" fill="none" xmlns="http://www.w3.org/2000/svg">
<path d="M214.818 113.374C213.781 123.908 204.389 133.922 194.452 136.779L33.8877 137C23.8476 134.558 14.209 124.648 12.8488 114.271C11.7087 105.529 13.1467 95.5025 11.7476 86.151C11.3589 83.5793 7.99062 64.5645 7.99062 64.5645L0.256467 14.8844C-0.961306 8.54609 2.25154 4.46778 7.89993 2.25978C7.89993 2.25978 199.544 -2.10428 208.288 2.00001C217.033 6.1043 216.152 13.2998 215.789 21.8071C215.712 23.6774 214.818 25.4178 214.753 27.5869C214.39 39.8738 215.025 52.2516 214.908 64.5385C214.908 64.5385 215.323 108.309 214.818 113.374Z" fill="#C6E0CE"/>
</svg>
