<?xml version="1.0" encoding="UTF-8"?>
<svg xmlns="http://www.w3.org/2000/svg" width="24" height="25" viewBox="0 0 24 25" fill="none">
  <path d="M16.017 2.67578H7.947C6.37015 2.67763 4.85844 3.30492 3.74353 4.42002C2.62862 5.53511 2.00159 7.04693 2 8.62378L2 16.6938C2.00185 18.2706 2.62914 19.7823 3.74424 20.8973C4.85933 22.0122 6.37115 22.6392 7.948 22.6408H16.018C17.5948 22.6389 19.1066 22.0116 20.2215 20.8965C21.3364 19.7815 21.9634 18.2696 21.965 16.6928V8.62278C21.9631 7.04593 21.3359 5.53422 20.2208 4.41931C19.1057 3.3044 17.5938 2.67737 16.017 2.67578V2.67578ZM19.957 16.6928C19.957 17.2102 19.8551 17.7225 19.6571 18.2006C19.4591 18.6786 19.1689 19.1129 18.803 19.4788C18.4371 19.8446 18.0028 20.1349 17.5248 20.3329C17.0468 20.5309 16.5344 20.6328 16.017 20.6328H7.947C6.90222 20.6325 5.90032 20.2173 5.16165 19.4784C4.42297 18.7396 4.008 17.7376 4.008 16.6928V8.62278C4.00827 7.578 4.42349 6.5761 5.16235 5.83743C5.90122 5.09875 6.90322 4.68378 7.948 4.68378H16.018C17.0628 4.68405 18.0647 5.09927 18.8034 5.83813C19.542 6.577 19.957 7.579 19.957 8.62378V16.6938V16.6928Z" fill="#FAFAFA"></path>
  <path d="M11.982 7.49463C10.6134 7.49675 9.30154 8.04141 8.33391 9.00923C7.36627 9.97706 6.82186 11.2891 6.82001 12.6576C6.82159 14.0265 7.36603 15.339 8.33391 16.307C9.30179 17.2751 10.6141 17.8198 11.983 17.8216C13.3521 17.82 14.6647 17.2755 15.6328 16.3074C16.6008 15.3393 17.1454 14.0267 17.147 12.6576C17.1449 11.2887 16.5999 9.97651 15.6317 9.00882C14.6634 8.04113 13.3509 7.49695 11.982 7.49563V7.49463ZM11.982 15.8136C11.1452 15.8136 10.3428 15.4812 9.75109 14.8896C9.15941 14.2979 8.82701 13.4954 8.82701 12.6586C8.82701 11.8219 9.15941 11.0194 9.75109 10.4277C10.3428 9.83603 11.1452 9.50363 11.982 9.50363C12.8188 9.50363 13.6213 9.83603 14.2129 10.4277C14.8046 11.0194 15.137 11.8219 15.137 12.6586C15.137 13.4954 14.8046 14.2979 14.2129 14.8896C13.6213 15.4812 12.8188 15.8136 11.982 15.8136Z" fill="#FAFAFA"></path>
  <path d="M17.156 8.77087C17.8392 8.77087 18.393 8.21705 18.393 7.53387C18.393 6.8507 17.8392 6.29688 17.156 6.29688C16.4728 6.29688 15.919 6.8507 15.919 7.53387C15.919 8.21705 16.4728 8.77087 17.156 8.77087Z" fill="#FAFAFA"></path>
</svg>
